<svg xmlns="http://www.w3.org/2000/svg" viewBox="0 0 400 500" width="400" height="500" role="img">
  <defs>
    <linearGradient id="scrim" x1="0" y1="0" x2="0" y2="1">
      <stop offset="0" stop-color="#0A0B0E" stop-opacity="0"/>
      <stop offset="1" stop-color="#0A0B0E" stop-opacity="0.9"/>
    </linearGradient>
    <radialGradient id="amb" cx="0.5" cy="0.36" r="0.75">
      <stop offset="0" stop-color="#8B7DFF" stop-opacity="0.22"/>
      <stop offset="0.6" stop-color="#8B7DFF" stop-opacity="0.05"/>
      <stop offset="1" stop-color="#0A0B0E" stop-opacity="0"/>
    </radialGradient>
    <radialGradient id="hs" cx="0.4" cy="0.35" r="0.85"><stop offset="0" stop-color="#C4BBFF"/><stop offset="1" stop-color="#8B7DFF"/></radialGradient>
  </defs>
  <rect width="400" height="500" fill="#0A0B0E"/>
  <rect width="400" height="500" fill="url(#amb)"/>
  
      <path d="M205 150 Q205 240 205 296" stroke="#8B7DFF" stroke-width="2.5" stroke-dasharray="4 7" opacity="0.45" fill="none"/>
      <g transform="translate(205 170)">
        <circle r="42" fill="url(#hs)"/>
        <path d="M-42 0 Q0 -20 42 0 M-42 0 Q0 20 42 0 M0 -42 Q-16 0 0 42 M0 -42 Q16 0 0 42" fill="none" stroke="#0A0B0E" stroke-width="2.4" opacity="0.5"/>
        <circle cx="-12" cy="-14" r="9" fill="#fff" opacity="0.3"/>
      </g>
      <g transform="translate(196 344) rotate(-14)">
        <path d="M-58 6 Q-58 -16 -28 -16 L34 -16 Q66 -16 66 4 L66 16 Q66 24 56 24 L-48 24 Q-58 24 -58 16 Z" fill="#F4F6FA" opacity="0.92"/>
        <path d="M-58 8 L66 8" stroke="#0A0B0E" stroke-width="3" opacity="0.25"/>
        <path d="M-20 -16 L-12 8 M6 -16 L12 8" stroke="#9BA3B0" stroke-width="2.5" opacity="0.6"/>
        <rect x="-58" y="20" width="124" height="8" rx="4" fill="#9BA3B0" opacity="0.8"/>
      </g>
  <rect x="0" y="225" width="400" height="275" fill="url(#scrim)"/>
</svg>