<svg xmlns="http://www.w3.org/2000/svg" viewBox="0 0 400 500" width="400" height="500" role="img">
  <defs>
    <linearGradient id="scrim" x1="0" y1="0" x2="0" y2="1">
      <stop offset="0" stop-color="#0A0B0E" stop-opacity="0"/>
      <stop offset="1" stop-color="#0A0B0E" stop-opacity="0.9"/>
    </linearGradient>
    <radialGradient id="amb" cx="0.5" cy="0.36" r="0.75">
      <stop offset="0" stop-color="#33E07A" stop-opacity="0.22"/>
      <stop offset="0.6" stop-color="#33E07A" stop-opacity="0.05"/>
      <stop offset="1" stop-color="#0A0B0E" stop-opacity="0"/>
    </radialGradient>
    <linearGradient id="pitch" x1="0" y1="1" x2="0" y2="0">
        <stop offset="0" stop-color="#16A34A" stop-opacity="0.5"/><stop offset="1" stop-color="#16A34A" stop-opacity="0"/>
      </linearGradient>
  </defs>
  <rect width="400" height="500" fill="#0A0B0E"/>
  <rect width="400" height="500" fill="url(#amb)"/>
  
      <rect x="0" y="300" width="400" height="200" fill="url(#pitch)"/>
      <path d="M40 500 L150 320 M360 500 L250 320" stroke="#33E07A" stroke-width="2.5" opacity="0.55"/>
      <path d="M150 320 Q200 300 250 320" fill="none" stroke="#33E07A" stroke-width="2" opacity="0.5"/>
      <g transform="translate(150 150)">
        <circle r="58" fill="#F4F6FA"/>
        <polygon points="0,-26 25,-8 16,22 -16,22 -25,-8" fill="#0A0B0E"/>
        <path d="M0,-58 L0,-26 M55,-18 L25,-8 M34,49 L16,22 M-34,49 L-16,22 M-55,-18 L-25,-8" stroke="#0A0B0E" stroke-width="2.2" opacity="0.7"/>
        <circle r="22" fill="none" stroke="#fff" stroke-width="0"/>
        <circle cx="-18" cy="-20" r="12" fill="#fff" opacity="0.25"/>
      </g>
  <rect x="0" y="225" width="400" height="275" fill="url(#scrim)"/>
</svg>