<svg xmlns="http://www.w3.org/2000/svg" viewBox="0 0 400 500" width="400" height="500" role="img">
  <defs>
    <linearGradient id="scrim" x1="0" y1="0" x2="0" y2="1">
      <stop offset="0" stop-color="#0A0B0E" stop-opacity="0"/>
      <stop offset="1" stop-color="#0A0B0E" stop-opacity="0.9"/>
    </linearGradient>
    <radialGradient id="amb" cx="0.5" cy="0.36" r="0.75">
      <stop offset="0" stop-color="#FFE03D" stop-opacity="0.22"/>
      <stop offset="0.6" stop-color="#FFE03D" stop-opacity="0.05"/>
      <stop offset="1" stop-color="#0A0B0E" stop-opacity="0"/>
    </radialGradient>
    <radialGradient id="vb" cx="0.38" cy="0.34" r="0.8"><stop offset="0" stop-color="#FFF7C2"/><stop offset="0.55" stop-color="#FFE03D"/><stop offset="1" stop-color="#D9B91F"/></radialGradient>
  </defs>
  <rect width="400" height="500" fill="#0A0B0E"/>
  <rect width="400" height="500" fill="url(#amb)"/>
  
      <line x1="40" y1="120" x2="360" y2="120" stroke="#F4F6FA" stroke-width="2" opacity="0.25"/>
      <line x1="40" y1="128" x2="360" y2="128" stroke="#F4F6FA" stroke-width="1" opacity="0.15"/>
      <path d="M205 330 Q205 220 205 196" stroke="#FFE03D" stroke-width="2.5" stroke-dasharray="5 8" opacity="0.45" fill="none"/>
      <g transform="translate(205 168)">
        <circle r="56" fill="url(#vb)"/>
        <path d="M-56 0 Q0 -28 56 0 M-50 -26 Q0 4 50 -26 M-34 44 Q0 8 34 44" fill="none" stroke="#1E3A8A" stroke-width="3" opacity="0.55"/>
        <circle cx="-18" cy="-20" r="13" fill="#fff" opacity="0.35"/>
      </g>
      <g transform="translate(205 352) rotate(-6)">
        <rect x="-78" y="-10" width="74" height="20" rx="10" fill="#E8B88A"/>
        <rect x="6" y="-10" width="74" height="20" rx="10" fill="#E8B88A" transform="rotate(12 6 0)"/>
      </g>
  <rect x="0" y="225" width="400" height="275" fill="url(#scrim)"/>
</svg>